#!OML:ASF F:\VICON\USERDATA\INSTALL\rory3\rory3.ASF
:FULLY-SPECIFIED
:DEGREES
497
root -0.0350828 18.0119 -1.02986 2.24372 -12.6482 1.31265
lowerback -0.929625 -2.31044 -3.04317
upperback -0.562106 -3.06234 1.86212
thorax 0.205224 -1.52914 3.57838
lowerneck -26.413 -0.340288 -8.14759
upperneck 25.1461 2.59274 1.01545
head 12.6652 0.461782 2.20773
rclavicle 3.36443e-014 -5.1684e-015
rhumerus -32.7869 -4.83264 -81.8803
rradius 30.6085
rwrist 20.9488
rhand -17.3768 8.4843
rfingers 7.12502
rthumb 8.87177 -21.3092
lclavicle 3.36443e-014 -5.1684e-015
lhumerus -21.95 -5.79929 90.6005
lradius 69.7401
lwrist -0.752746
lhand -29.5253 22.6725
lfingers 7.12502
lthumb -2.85906 52.6331
rfemur -8.91879 10.3353 14.7775
rtibia 24.3649
rfoot -14.9488 -2.77336
rtoes 5.50806
lfemur 1.14446 -2.15078 -21.9491
ltibia 10.272
lfoot -9.24034 8.21052
ltoes -11.1898
498
root -0.035243 18.0108 -1.0276 2.28369 -12.654 1.36877
lowerback -1.04206 -2.32819 -3.1074
upperback -0.561845 -3.08271 1.87119
thorax 0.274049 -1.54063 3.61836
lowerneck -26.3768 -0.309336 -8.14505
upperneck 25.1024 2.64199 0.977795
head 12.6389 0.480172 2.20025
rclavicle 5.356e-014 1.31198e-014
rhumerus -32.8218 -4.73706 -81.8661
rradius 30.5831
rwrist 20.9242
rhand -17.5075 8.43954
rfingers 7.12502
rthumb 8.74564 -21.3593
lclavicle 5.356e-014 1.31198e-014
lhumerus -21.9085 -5.80233 90.622
lradius 69.721
lwrist -0.692984
lhand -29.6599 22.4926
lfingers 7.12502
lthumb -2.98901 52.4514
rfemur -8.96687 10.3243 14.7038
rtibia 24.3825
rfoot -14.9347 -2.72781
rtoes 5.83863
lfemur 1.08818 -2.1837 -22.0144
ltibia 10.2316
lfoot -9.21592 8.26069
ltoes -11.1781
499
root -0.0346605 18.0124 -1.02181 2.34065 -12.7136 1.45501
lowerback -1.22038 -2.32313 -3.18594
upperback -0.534895 -3.07037 1.85629
thorax 0.403812 -1.53733 3.63874
lowerneck -26.421 -0.299048 -8.09632
upperneck 25.0662 2.65963 0.913745
head 12.6341 0.484675 2.17042
rclavicle 3.84276e-014 -9.54166e-015
rhumerus -32.8144 -4.66341 -81.8932
rradius 30.5961
rwrist 20.8199
rhand -17.5704 8.41063
rfingers 7.12502
rthumb 8.68489 -21.3907
lclavicle 3.84276e-014 -9.54166e-015
lhumerus -21.8134 -5.85569 90.6172
lradius 69.6952
lwrist -0.537157
lhand -29.8557 22.1036
lfingers 7.12502
lthumb -3.1781 52.0596
rfemur -9.05828 10.2433 14.5872
rtibia 24.3987
rfoot -14.889 -2.66189
rtoes 5.24133
lfemur 1.07861 -2.1716 -22.1202
ltibia 10.1967
lfoot -9.20155 8.25917
ltoes -11.4084
500
root -0.0354888 18.013 -1.01952 2.3188 -12.7645 1.47258
lowerback -1.19972 -2.31037 -3.23045
upperback -0.548072 -3.05351 1.86566
thorax 0.380051 -1.52824 3.67509
lowerneck -26.4304 -0.273395 -8.02368
upperneck 25.1116 2.69508 0.826581
head 12.6552 0.492934 2.13207
rclavicle 2.87492e-014 -1.39149e-014
rhumerus -32.8784 -4.63685 -81.8862
rradius 30.5889
rwrist 20.7829
rhand -17.6073 8.26396
rfingers 7.12502
rthumb 8.64935 -21.5389
lclavicle 2.87492e-014 -1.39149e-014
lhumerus -21.8091 -5.87901 90.6047
lradius 69.698
lwrist -0.572916
lhand -29.8071 22.2075
lfingers 7.12502
lthumb -3.13117 52.1643
rfemur -9.06742 10.2924 14.5797
rtibia 24.4071
rfoot -14.8678 -2.70554
rtoes 4.82785
lfemur 1.13348 -2.16049 -22.1427
ltibia 10.1953
lfoot -9.18615 8.27567
ltoes -11.5414
501
root -0.0367685 18.0115 -1.01861 2.28571 -12.7989 1.39822
lowerback -1.15088 -2.30238 -3.19289
upperback -0.553805 -3.04485 1.91538
thorax 0.346807 -1.52327 3.7078
lowerneck -26.41 -0.248323 -8.04091
upperneck 25.1354 2.74384 0.802711
head 12.6589 0.508364 2.13452
rclavicle 7.16246e-014 -6.36111e-015
rhumerus -32.9532 -4.63276 -81.829
rradius 30.5552
rwrist 20.8024
rhand -17.7546 8.05259
rfingers 7.12502
rthumb 8.50719 -21.756
lclavicle 7.16246e-014 -6.36111e-015
lhumerus -21.831 -5.92288 90.6176
lradius 69.6919
lwrist -0.678605
lhand -29.8065 22.5865
lfingers 7.12502
lthumb -3.13056 52.5433
rfemur -9.0135 10.3881 14.6752
rtibia 24.3981
rfoot -14.8964 -2.73443
rtoes 5.02015
lfemur 1.1503 -2.15603 -22.0611
ltibia 10.2826
lfoot -9.24984 8.33319
ltoes -11.308
502
root -0.0372082 18.0094 -1.0175 2.31803 -12.7962 1.31301
lowerback -1.16678 -2.31122 -3.12878
upperback -0.571757 -3.05722 1.96503
thorax 0.337756 -1.52911 3.7225
lowerneck -26.3854 -0.227652 -8.07578
upperneck 25.1421 2.77932 0.822125
head 12.6541 0.523228 2.1539
rclavicle 9.77772e-015 1.43125e-014
rhumerus -33.0087 -4.66914 -81.7711
rradius 30.4865
rwrist 20.8928
rhand -17.9057 7.72245
rfingers 7.12502
rthumb 8.36136 -22.0921
lclavicle 9.77772e-015 1.43125e-014
lhumerus -21.8375 -5.97003 90.6435
lradius 69.6532
lwrist -0.685082
lhand -29.8775 22.5882
lfingers 7.12502
lthumb -3.19911 52.5439
rfemur -9.00815 10.4177 14.7699
rtibia 24.3892
rfoot -14.9024 -2.73379
rtoes 5.43408
lfemur 1.06804 -2.17522 -21.9645
ltibia 10.4057
lfoot -9.31242 8.35624
ltoes -11.2035
503
root -0.0378899 18.0066 -1.01661 2.32127 -12.7469 1.24252
lowerback -1.14761 -2.33703 -3.07043
upperback -0.569212 -3.09294 1.99709
thorax 0.33149 -1.54699 3.72275
lowerneck -26.4342 -0.187678 -8.03585
upperneck 25.1746 2.83029 0.807504
head 12.6746 0.545972 2.15196
rclavicle -2.45251e-014 2.70347e-014
rhumerus -33.0585 -4.73677 -81.7268
rradius 30.477
rwrist 20.9988
rhand -17.9727 7.33156
rfingers 7.12502
rthumb 8.29666 -22.4855
lclavicle -2.45251e-014 2.70347e-014
lhumerus -21.8443 -6.00406 90.6595
lradius 69.6572
lwrist -0.624168
lhand -29.8661 22.4819
lfingers 7.12502
lthumb -3.18818 52.4378
rfemur -8.96105 10.3649 14.86
rtibia 24.3669
rfoot -14.9316 -2.72345
rtoes 5.49433
lfemur 0.979847 -2.14185 -21.8809
ltibia 10.5306
lfoot -9.34089 8.34391
ltoes -11.5365
504
root -0.0381643 18.0056 -1.01424 2.2998 -12.7239 1.23302
lowerback -1.14723 -2.35127 -3.06054
upperback -0.561508 -3.11209 2.00613
thorax 0.340849 -1.55691 3.72588
lowerneck -26.4043 -0.163451 -8.07612
upperneck 25.171 2.85735 0.874951
head 12.6635 0.564092 2.18908
rclavicle 1.11816e-014 -2.54444e-014
rhumerus -33.0832 -4.8318 -81.6664
rradius 30.4051
rwrist 21.0673
rhand -17.8488 7.21274
rfingers 7.12502
rthumb 8.4163 -22.5996
lclavicle 1.11816e-014 -2.54444e-014
lhumerus -21.9072 -6.02579 90.6818
lradius 69.7647
lwrist -0.443773
lhand -29.869 22.5026
lfingers 7.12502
lthumb -3.19091 52.4585
rfemur -8.92287 10.3516 14.8879
rtibia 24.3432
rfoot -14.9061 -2.7926
rtoes 4.78944
lfemur 0.944046 -2.15779 -21.8781
ltibia 10.6101
lfoot -9.3494 8.38604
ltoes -11.6088
505
root -0.0380714 18.0073 -1.01146 2.31569 -12.7303 1.20593
lowerback -1.18932 -2.34889 -3.02635
upperback -0.585815 -3.10833 2.01764
thorax 0.337969 -1.55461 3.7174
lowerneck -26.2632 -0.145203 -8.11385
upperneck 25.1266 2.86885 0.918702
head 12.616 0.574421 2.21173
rclavicle 2.88735e-014 0
rhumerus -33.146 -4.88681 -81.6412
rradius 30.3444
rwrist 21.0586
rhand -17.7485 7.27156
rfingers 7.12502
rthumb 8.51302 -22.5368
lclavicle 2.88735e-014 0
lhumerus -22.0142 -5.99375 90.7169
lradius 69.8728
lwrist -0.313199
lhand -29.8296 22.5459
lfingers 7.12502
lthumb -3.15293 52.5023
rfemur -8.93384 10.3252 14.9226
rtibia 24.3155
rfoot -14.8494 -2.84292
rtoes 4.3163
lfemur 0.949644 -2.25647 -21.8616
ltibia 10.6651
lfoot -9.3986 8.47632
ltoes -11.4066
506
root -0.0380179 18.0103 -1.00663 2.31679 -12.7783 1.23117
lowerback -1.25713 -2.33557 -3.04863
upperback -0.578501 -3.08871 2.02344
thorax 0.383234 -1.54577 3.73316
lowerneck -26.2029 -0.144049 -8.11629
upperneck 25.0568 2.87227 0.887665
head 12.577 0.574344 2.19866
rclavicle -1.72694e-015 -6.36111e-015
rhumerus -33.1948 -4.87988 -81.6319
rradius 30.3656
rwrist 21.019
rhand -17.8 7.16035
rfingers 7.12502
rthumb 8.46336 -22.6501
lclavicle -1.72694e-015 -6.36111e-015
lhumerus -22.014 -6.02287 90.7328
lradius 69.8767
lwrist -0.381264
lhand -29.8321 22.557
lfingers 7.12502
lthumb -3.15535 52.5134
rfemur -8.91668 10.2897 14.8876
rtibia 24.2776
rfoot -14.826 -2.79829
rtoes 4.61776
lfemur 0.973829 -2.18176 -21.8861
ltibia 10.7082
lfoot -9.45809 8.41464
ltoes -11.4621
507
root -0.038982 18.0096 -1.00309 2.31408 -12.8781 1.21576
lowerback -1.30661 -2.30615 -3.041
upperback -0.553357 -3.04842 2.03387
thorax 0.433416 -1.52696 3.73781
lowerneck -26.192 -0.14216 -8.13701
upperneck 25.0149 2.87265 0.914786
head 12.5571 0.578187 2.21164
rclavicle 2.33324e-014 -7.95139e-016
rhumerus -33.2479 -4.92317 -81.6332
rradius 30.4191
rwrist 21.0033
rhand -17.8385 7.08007
rfingers 7.12502
rthumb 8.42617 -22.7318
lclavicle 2.33324e-014 -7.95139e-016
lhumerus -21.943 -6.15705 90.703
lradius 69.8381
lwrist -0.329866
lhand -29.8988 22.3074
lfingers 7.12502
lthumb -3.21977 52.2628
rfemur -8.88936 10.3942 14.9019
rtibia 24.2272
rfoot -14.8209 -2.78034
rtoes 5.07904
lfemur 0.96839 -2.0844 -21.8638
ltibia 10.7625
lfoot -9.52174 8.4002
ltoes -11.5602
508
root -0.0387102 18.0089 -0.99962 2.27991 -12.9475 1.1334
lowerback -1.2885 -2.29509 -2.9711
upperback -0.551815 -3.0352 2.07414
thorax 0.422281 -1.52023 3.74117
lowerneck -26.0958 -0.110494 -8.13703
upperneck 24.98 2.90581 0.915543
head 12.5226 0.594914 2.21597
rclavicle 5.59082e-016 -5.56597e-015
rhumerus -33.3627 -4.82953 -81.6393
rradius 30.4589
rwrist 20.9532
rhand -17.8167 7.14234
rfingers 7.12502
rthumb 8.44727 -22.6687
lclavicle 5.59082e-016 -5.56597e-015
lhumerus -21.9817 -6.16277 90.704
lradius 69.8674
lwrist -0.134185
lhand -29.9599 22.0486
lfingers 7.12502
lthumb -3.27873 52.0031
rfemur -8.82265 10.4361 15.0014
rtibia 24.1988
rfoot -14.7733 -2.76276
rtoes 4.99306
lfemur 1.02844 -2.01848 -21.7805
ltibia 10.7911
lfoot -9.57931 8.42235
ltoes -11.71
509
root -0.0379833 18.0074 -0.995347 2.24437 -12.9538 1.07282
lowerback -1.28938 -2.30275 -2.90793
upperback -0.536527 -3.04634 2.10087
thorax 0.437642 -1.52637 3.73254
lowerneck -26.091 -0.0886426 -8.09389
upperneck 24.9966 2.93555 0.8616
head 12.5287 0.603827 2.19363
rclavicle 1.76297e-014 0
rhumerus -33.4137 -4.79954 -81.6207
rradius 30.4057
rwrist 21.0186
rhand -17.8283 7.24477
rfingers 7.12502
rthumb 8.43609 -22.5667
lclavicle 1.76297e-014 0
lhumerus -21.9988 -6.12313 90.7045
lradius 69.9433
lwrist -0.134597
lhand -29.8437 22.1561
lfingers 7.12502
lthumb -3.16647 52.1123
rfemur -8.74058 10.3981 15.0775
rtibia 24.1792
rfoot -14.7524 -2.7234
rtoes 4.95777
lfemur 1.07787 -2.05098 -21.7225
ltibia 10.8454
lfoot -9.64238 8.45543
ltoes -11.5844
510
root -0.037758 18.0072 -0.992724 2.18615 -12.9034 1.08156
lowerback -1.25692 -2.32923 -2.92207
upperback -0.520404 -3.08232 2.1126
thorax 0.440522 -1.54473 3.75268
lowerneck -26.0411 -0.0848662 -8.11426
upperneck 24.954 2.937 0.879446
head 12.5012 0.607067 2.20266
rclavicle -6.60586e-014 2.38542e-015
rhumerus -33.4236 -4.805 -81.6092
rradius 30.3321
rwrist 21.1015
rhand -17.699 7.2058
rfingers 7.12502
rthumb 8.5608 -22.6007
lclavicle -6.60586e-014 2.38542e-015
lhumerus -21.974 -6.15988 90.6785
lradius 69.9791
lwrist -0.232767
lhand -29.7644 22.5088
lfingers 7.12502
lthumb -3.08997 52.4662
rfemur -8.6368 10.3806 15.0823
rtibia 24.1588
rfoot -14.7908 -2.73425
rtoes 5.09278
lfemur 1.11434 -2.12226 -21.7353
ltibia 10.9188
lfoot -9.66758 8.46571
ltoes -11.6549
511
root -0.0382792 18.0075 -0.98905 2.16274 -12.8532 1.07985
lowerback -1.24337 -2.3563 -2.94333
upperback -0.539385 -3.11864 2.13381
thorax 0.418911 -1.56229 3.78673
lowerneck -25.9213 -0.0654573 -8.09573
upperneck 24.9166 2.94911 0.858695
head 12.4633 0.613451 2.19164
rclavicle -3.19546e-014 2.06736e-014
rhumerus -33.4285 -4.82031 -81.583
rradius 30.2081
rwrist 21.1411
rhand -17.6639 7.44756
rfingers 7.12502
rthumb 8.59467 -22.3575
lclavicle -3.19546e-014 2.06736e-014
lhumerus -21.999 -6.24996 90.6545
lradius 69.9997
lwrist -0.283402
lhand -29.7516 22.6439
lfingers 7.12502
lthumb -3.07756 52.6015
rfemur -8.58869 10.364 15.0911
rtibia 24.1864
rfoot -14.8713 -2.71487
rtoes 5.61941
lfemur 1.17722 -2.19608 -21.7375
ltibia 10.8715
lfoot -9.64877 8.48849
ltoes -11.5513
